<?xml version="1.0" encoding="UTF-8" standalone="no"?>
<svg
   style="fill-opacity:1; color-rendering:auto; color-interpolation:auto; text-rendering:auto; stroke:black; stroke-linecap:square; stroke-miterlimit:10; shape-rendering:auto; stroke-opacity:1; fill:black; stroke-dasharray:none; font-weight:normal; stroke-width:1; font-family:'Dialog'; font-style:normal; stroke-linejoin:miter; font-size:12px; stroke-dashoffset:0; image-rendering:auto;"
   width="960"
   height="648"
   version="1.1"
   id="svg243"
   sodipodi:docname="untitled.svg"
   inkscape:version="1.1.1 (3bf5ae0d25, 2021-09-20)"
   xmlns:inkscape="http://www.inkscape.org/namespaces/inkscape"
   xmlns:sodipodi="http://sodipodi.sourceforge.net/DTD/sodipodi-0.dtd"
   xmlns="http://www.w3.org/2000/svg"
   xmlns:svg="http://www.w3.org/2000/svg">
  <sodipodi:namedview
     id="namedview245"
     pagecolor="#ffffff"
     bordercolor="#666666"
     borderopacity="1.0"
     inkscape:pageshadow="2"
     inkscape:pageopacity="0.0"
     inkscape:pagecheckerboard="0"
     showgrid="false"
     inkscape:zoom="0.83526989"
     inkscape:cx="412.44154"
     inkscape:cy="360.96118"
     inkscape:window-width="1920"
     inkscape:window-height="1009"
     inkscape:window-x="-8"
     inkscape:window-y="312"
     inkscape:window-maximized="1"
     inkscape:current-layer="g241" />
  <!--Generated by the Batik Graphics2D SVG Generator-->
  <defs
     id="genericDefs" />
  <g
     id="g241">
    <defs
       id="defs1">
      <clipPath
         clipPathUnits="userSpaceOnUse"
         id="clipPath1">
        <path
           d="M0 0 L960 0 L960 648 L0 648 L0 0 Z"
           id="path3" />
      </clipPath>
      <clipPath
         clipPathUnits="userSpaceOnUse"
         id="clipPath2">
        <path
           d="M1 0 L1 1 L801 1 L801 0 Z"
           id="path6" />
      </clipPath>
      <clipPath
         clipPathUnits="userSpaceOnUse"
         id="clipPath3">
        <path
           d="M0 0 L0 1 L153 1 L153 0 Z"
           id="path9" />
      </clipPath>
      <clipPath
         clipPathUnits="userSpaceOnUse"
         id="clipPath4">
        <path
           d="M0 0 L0 192 L1 192 L1 0 Z"
           id="path12" />
      </clipPath>
      <clipPath
         clipPathUnits="userSpaceOnUse"
         id="clipPath5">
        <path
           d="M0 0 L0 449 L1 449 L1 0 Z"
           id="path15" />
      </clipPath>
    </defs>
    <g
       style="fill:white; stroke:white;"
       id="g21">
      <rect
         x="0"
         y="0"
         width="960"
         style="clip-path:url(#clipPath1); stroke:none;"
         height="648"
         clip-path="url(#clipPath1)"
         id="rect19" />
    </g>
    <g
       style="fill:white; text-rendering:optimizeSpeed; color-rendering:optimizeSpeed; image-rendering:optimizeSpeed; shape-rendering:crispEdges; stroke:white; color-interpolation:sRGB;"
       id="g27">
      <rect
         x="0"
         width="960"
         height="648"
         y="0"
         style="stroke:none;"
         id="rect23" />
      <path
         style="stroke:none;"
         d="M125 576 L869 576 L869 49 L125 49 Z"
         id="path25" />
    </g>
    <g
       style="fill:rgb(38,38,38); text-rendering:geometricPrecision; image-rendering:optimizeQuality; color-rendering:optimizeQuality; stroke-linejoin:round; stroke:rgb(38,38,38); color-interpolation:linearRGB; stroke-width:2.4;"
       id="g43">
      <line
         y2="576"
         style="fill:none;"
         x1="125"
         x2="869"
         y1="576"
         id="line29" />
      <line
         y2="568.56"
         style="fill:none;"
         x1="125"
         x2="125"
         y1="576"
         id="line31" />
      <line
         y2="568.56"
         style="fill:none;"
         x1="273.8"
         x2="273.8"
         y1="576"
         id="line33" />
      <line
         y2="568.56"
         style="fill:none;"
         x1="422.6"
         x2="422.6"
         y1="576"
         id="line35" />
      <line
         y2="568.56"
         style="fill:none;"
         x1="571.4"
         x2="571.4"
         y1="576"
         id="line37" />
      <line
         y2="568.56"
         style="fill:none;"
         x1="720.2"
         x2="720.2"
         y1="576"
         id="line39" />
      <line
         y2="568.56"
         style="fill:none;"
         x1="869"
         x2="869"
         y1="576"
         id="line41" />
    </g>
    <g
       transform="translate(125,584)"
       style="font-size:26.6667px; fill:rgb(38,38,38); text-rendering:geometricPrecision; image-rendering:optimizeQuality; color-rendering:optimizeQuality; font-family:'Symbola'; stroke:rgb(38,38,38); color-interpolation:linearRGB;"
       id="g47">
      <path
         style="stroke:none;"
         d="M5.5312 12.2188 Q5.5312 16.2969 4.5 18.4062 Q2.9375 21.5938 -0.2812 21.5938 Q-3.25 21.5938 -4.8125 18.8438 Q-6.0312 16.6719 -6.0312 12.2188 Q-6.0312 8.0625 -5.0312 5.9531 Q-3.5 2.7031 -0.25 2.7031 Q2.8906 2.7031 4.4375 5.7656 Q5.5312 7.9375 5.5312 12.2188 ZM3.25 13.5625 L3.25 10.1406 Q3.25 7.2812 2.75 5.7969 Q1.9531 3.2969 -0.2812 3.2969 Q-2.4844 3.2969 -3.2969 5.8125 Q-3.7812 7.3125 -3.7812 10.1562 Q-3.7812 10.6875 -3.7656 11.7656 Q-3.7656 12.8281 -3.7656 13.3594 Q-3.7656 16.5 -3.3281 18.0938 Q-2.5625 21 -0.2812 21 Q1.9844 21 2.7969 18.2031 Q3.25 16.625 3.25 13.5625 Z"
         id="path45" />
    </g>
    <g
       transform="translate(273.8,584)"
       style="font-size:26.6667px; fill:rgb(38,38,38); text-rendering:geometricPrecision; image-rendering:optimizeQuality; color-rendering:optimizeQuality; font-family:'Symbola'; stroke:rgb(38,38,38); color-interpolation:linearRGB;"
       id="g51">
      <path
         style="stroke:none;"
         d="M5.2188 16.2344 L4.4688 21 L-5.7344 21 L-5.7344 20.7656 Q-5.7344 20.3281 -5.4219 19.9688 L-0.1406 14.1094 Q2.7344 10.9062 2.7344 8.0312 Q2.7344 6.1875 1.8125 4.9375 Q0.8125 3.5469 -0.9531 3.5469 Q-2.2344 3.5469 -3.2344 4.3203 Q-4.2344 5.0938 -4.6719 6.3438 Q-4.5781 6.3125 -4.4375 6.3125 Q-2.8438 6.3125 -2.8438 7.75 Q-2.8438 8.3594 -3.2578 8.7812 Q-3.6719 9.2031 -4.2656 9.2031 Q-5.7344 9.2031 -5.7344 7.6719 Q-5.7344 5.5938 -4.2031 4.1484 Q-2.6719 2.7031 -0.5938 2.7031 Q1.8438 2.7031 3.5 4.125 Q5.2188 5.625 5.2188 8.0312 Q5.2188 9.5781 4.2031 11.0312 Q3.625 11.8594 2.0312 13.4219 L-3.6094 18.8906 L1.875 18.8906 Q3.6719 18.8906 3.9297 18.6719 Q4.1875 18.4531 4.5312 16.2344 L5.2188 16.2344 Z"
         id="path49" />
    </g>
    <g
       transform="translate(422.6,584)"
       style="font-size:26.6667px; fill:rgb(38,38,38); text-rendering:geometricPrecision; image-rendering:optimizeQuality; color-rendering:optimizeQuality; font-family:'Symbola'; stroke:rgb(38,38,38); color-interpolation:linearRGB;"
       id="g55">
      <path
         style="stroke:none;"
         d="M5.8281 16.4531 L3.0781 16.4531 L3.0781 19.0312 Q3.0781 19.4375 3.2031 19.6719 Q3.4531 20.1719 5.7656 20.1562 L5.7656 21 Q4.6719 20.9219 3.8906 20.9219 L0.125 20.9219 Q-0.6094 20.9219 -1.7031 21 L-1.7031 20.1562 Q-1.0781 20.1719 -0.8594 20.1719 Q0.5938 20.1719 0.8594 19.6719 Q0.9688 19.4375 0.9688 19.0312 L0.9688 16.4531 L-6.3438 16.4531 L-6.3438 15.6094 L2.0938 2.7188 Q2.3125 2.3906 2.6562 2.3906 Q2.9844 2.3906 3.0625 2.6094 Q3.0781 2.6875 3.0781 3.1094 L3.0781 15.6094 L5.8281 15.6094 L5.8281 16.4531 ZM1.1406 15.6094 L1.1406 5.3594 L-5.5781 15.6094 L1.1406 15.6094 Z"
         id="path53" />
    </g>
    <g
       transform="translate(571.4,584)"
       style="font-size:26.6667px; fill:rgb(38,38,38); text-rendering:geometricPrecision; image-rendering:optimizeQuality; color-rendering:optimizeQuality; font-family:'Symbola'; stroke:rgb(38,38,38); color-interpolation:linearRGB;"
       id="g59">
      <path
         style="stroke:none;"
         d="M5.4531 15.3906 Q5.4531 17.9062 3.9062 19.7031 Q2.2656 21.5938 -0.2031 21.5938 Q-3.3906 21.5938 -4.8438 18.3438 Q-5.9375 15.9219 -5.9375 12.2969 Q-5.9375 9.5938 -4.9531 7.3594 Q-3.8281 4.8438 -1.7188 3.5781 Q-0.2656 2.7031 1.2969 2.7031 Q2.7656 2.7031 3.7188 3.4062 Q4.7812 4.2188 4.7812 5.6406 Q4.7812 6.2188 4.4375 6.6016 Q4.0938 6.9844 3.5156 6.9844 Q2.9844 6.9844 2.6172 6.6172 Q2.25 6.25 2.25 5.7031 Q2.25 4.4219 3.7656 4.4844 Q3 3.3594 1.3438 3.3594 Q0.2812 3.3594 -0.7031 3.9844 Q-3.4688 5.7344 -3.4688 11.9844 Q-2.3594 9.2656 -0.0312 9.2656 Q2.375 9.2656 3.9531 11.1562 Q5.4531 12.9375 5.4531 15.3906 ZM3 16.1094 L3 14.7344 Q3 12.625 2.5 11.5938 Q1.6562 9.9062 -0.0469 9.9062 Q-1.7656 9.9062 -2.6719 11.5781 Q-3.4219 12.9375 -3.4219 14.7969 Q-3.4219 17.5 -2.9219 18.7656 Q-2.5781 19.6562 -1.875 20.2188 Q-1.0938 20.8438 -0.2031 20.8438 Q1.6562 20.8438 2.5156 19.0469 Q3 18.0781 3 16.1094 Z"
         id="path57" />
    </g>
    <g
       transform="translate(720.2,584)"
       style="font-size:26.6667px; fill:rgb(38,38,38); text-rendering:geometricPrecision; image-rendering:optimizeQuality; color-rendering:optimizeQuality; font-family:'Symbola'; stroke:rgb(38,38,38); color-interpolation:linearRGB;"
       id="g63">
      <path
         style="stroke:none;"
         d="M5.4531 16.4062 Q5.4531 18.6406 3.6719 20.1562 Q2 21.5938 -0.2812 21.5938 Q-2.4844 21.5938 -4.1406 20.3594 Q-5.9531 18.9844 -5.9531 16.8438 Q-5.9531 13.75 -1.9844 11.7812 Q-2.7188 11.3594 -4.0156 10.3125 Q-5.2188 9 -5.2188 7.2812 Q-5.2188 5.3125 -3.6875 3.9844 Q-2.2344 2.7031 -0.2344 2.7031 Q1.6875 2.7031 3.125 3.7656 Q4.7188 4.9375 4.7188 6.7812 Q4.7188 9.3438 1.3906 11.0469 Q2.6094 11.7812 2.8281 11.9219 Q3.6094 12.4531 4.0938 13 Q5.4531 14.4844 5.4531 16.4062 ZM3.5 6.7812 Q3.5 5.3125 2.3281 4.3125 Q1.2344 3.3594 -0.2812 3.3594 Q-1.6562 3.3594 -2.7656 4.0781 Q-4.0156 4.8906 -4.0156 6.2031 Q-4.0156 7.4062 -2.625 8.4219 Q-2.2344 8.7188 0.7656 10.6406 Q3.5 9.0625 3.5 6.7812 ZM4.0938 17.3594 Q4.0938 16.3594 3.4688 15.5781 Q3.0312 15.0469 2.0156 14.3516 Q1 13.6562 -1.375 12.2188 Q-4.5938 13.9844 -4.5938 16.8438 Q-4.5938 18.5625 -3.25 19.7344 Q-1.9844 20.8438 -0.2344 20.8438 Q1.3906 20.8438 2.6562 19.9375 Q4.0938 18.9219 4.0938 17.3594 Z"
         id="path61" />
    </g>
    <g
       transform="translate(869,584)"
       style="font-size:26.6667px; fill:rgb(38,38,38); text-rendering:geometricPrecision; image-rendering:optimizeQuality; color-rendering:optimizeQuality; font-family:'Symbola'; stroke:rgb(38,38,38); color-interpolation:linearRGB;"
       id="g67">
      <path
         style="stroke:none;"
         d="M-2.2188 21 Q-3.1562 20.9219 -4 20.9219 L-9.3281 20.9219 Q-10.1719 20.9219 -11.1094 21 L-11.1094 20.1562 Q-10.9531 20.1562 -10.6172 20.1719 Q-10.2812 20.1875 -10.1094 20.1875 Q-8.0938 20.1875 -7.7969 19.6094 Q-7.6875 19.375 -7.6875 18.9219 L-7.6875 4.5938 Q-9.125 5.2969 -11.2656 5.2969 L-11.2656 4.4531 Q-7.9688 4.4531 -6.2812 2.7031 L-6.1406 2.7031 Q-5.7656 2.7031 -5.6875 2.8906 Q-5.6406 2.9688 -5.6406 3.4062 L-5.6406 18.9688 Q-5.6406 19.4062 -5.5312 19.625 Q-5.3438 20.0625 -4 20.1562 Q-3.8125 20.1719 -2.2188 20.1562 L-2.2188 21 ZM12.3594 12.2188 Q12.3594 16.2969 11.3281 18.4062 Q9.7656 21.5938 6.5469 21.5938 Q3.5781 21.5938 2.0156 18.8438 Q0.7969 16.6719 0.7969 12.2188 Q0.7969 8.0625 1.7969 5.9531 Q3.3281 2.7031 6.5781 2.7031 Q9.7188 2.7031 11.2656 5.7656 Q12.3594 7.9375 12.3594 12.2188 ZM10.0781 13.5625 L10.0781 10.1406 Q10.0781 7.2812 9.5781 5.7969 Q8.7812 3.2969 6.5469 3.2969 Q4.3438 3.2969 3.5312 5.8125 Q3.0469 7.3125 3.0469 10.1562 Q3.0469 10.6875 3.0625 11.7656 Q3.0625 12.8281 3.0625 13.3594 Q3.0625 16.5 3.5 18.0938 Q4.2656 21 6.5469 21 Q8.8125 21 9.625 18.2031 Q10.0781 16.625 10.0781 13.5625 Z"
         id="path65" />
    </g>
    <g
       transform="translate(497.0004,612.8)"
       style="font-size:29.3333px; fill:rgb(38,38,38); text-rendering:geometricPrecision; image-rendering:optimizeQuality; color-rendering:optimizeQuality; font-family:'mwa_cmr10'; stroke:rgb(38,38,38); color-interpolation:linearRGB;"
       id="g71">
      <path
         style="stroke:none;"
         d="M-7.3814 24.6399 L-7.3814 23.6243 Q-6.2877 23.6243 -5.3111 23.1868 Q-4.3345 22.7493 -3.647 21.9055 L-1.022 18.5461 L-4.4439 14.093 Q-4.9439 13.4524 -5.5455 13.304 Q-6.147 13.1555 -7.2408 13.1555 L-7.2408 12.1399 L-1.2095 12.1399 L-1.2095 13.1555 Q-1.6002 13.1555 -1.9283 13.3274 Q-2.2564 13.4993 -2.2564 13.8274 Q-2.2564 13.9368 -2.1783 14.093 L0.1498 17.1086 L1.8842 14.8743 Q2.2436 14.4368 2.2436 14.0149 Q2.2436 13.6711 2.0092 13.4133 Q1.7748 13.1555 1.3998 13.1555 L1.3998 12.1399 L6.728 12.1399 L6.728 13.1555 Q5.6186 13.1555 4.6342 13.5852 Q3.6498 14.0149 2.9623 14.8743 L0.6655 17.7961 L4.3842 22.7024 Q4.9311 23.343 5.5248 23.4836 Q6.1186 23.6243 7.228 23.6243 L7.228 24.6399 L1.1967 24.6399 L1.1967 23.6243 Q1.5561 23.6243 1.8764 23.4524 Q2.1967 23.2805 2.1967 22.9524 Q2.1967 22.8274 2.1186 22.7024 L-0.4908 19.2493 L-2.5689 21.9055 Q-2.897 22.2805 -2.897 22.7493 Q-2.897 23.1086 -2.6548 23.3665 Q-2.4127 23.6243 -2.0845 23.6243 L-2.0845 24.6399 L-7.3814 24.6399 Z"
         id="path69" />
    </g>
    <g
       style="fill:rgb(38,38,38); text-rendering:geometricPrecision; image-rendering:optimizeQuality; color-rendering:optimizeQuality; stroke-linejoin:round; stroke:rgb(38,38,38); color-interpolation:linearRGB; stroke-width:2.4;"
       id="g97">
      <line
         y2="49"
         style="fill:none;"
         x1="125"
         x2="125"
         y1="576"
         id="line73" />
      <line
         y2="576"
         style="fill:none;"
         x1="125"
         x2="132.44"
         y1="576"
         id="line75" />
      <line
         y2="523.3"
         style="fill:none;"
         x1="125"
         x2="132.44"
         y1="523.3"
         id="line77" />
      <line
         y2="470.6"
         style="fill:none;"
         x1="125"
         x2="132.44"
         y1="470.6"
         id="line79" />
      <line
         y2="417.9"
         style="fill:none;"
         x1="125"
         x2="132.44"
         y1="417.9"
         id="line81" />
      <line
         y2="365.2"
         style="fill:none;"
         x1="125"
         x2="132.44"
         y1="365.2"
         id="line83" />
      <line
         y2="312.5"
         style="fill:none;"
         x1="125"
         x2="132.44"
         y1="312.5"
         id="line85" />
      <line
         y2="259.8"
         style="fill:none;"
         x1="125"
         x2="132.44"
         y1="259.8"
         id="line87" />
      <line
         y2="207.1"
         style="fill:none;"
         x1="125"
         x2="132.44"
         y1="207.1"
         id="line89" />
      <line
         y2="154.4"
         style="fill:none;"
         x1="125"
         x2="132.44"
         y1="154.4"
         id="line91" />
      <line
         y2="101.7"
         style="fill:none;"
         x1="125"
         x2="132.44"
         y1="101.7"
         id="line93" />
      <line
         y2="49"
         style="fill:none;"
         x1="125"
         x2="132.44"
         y1="49"
         id="line95" />
    </g>
    <g
       transform="translate(117,576)"
       style="font-size:26.6667px; fill:rgb(38,38,38); text-rendering:geometricPrecision; image-rendering:optimizeQuality; color-rendering:optimizeQuality; font-family:'Symbola'; stroke:rgb(38,38,38); color-interpolation:linearRGB;"
       id="g101">
      <path
         style="stroke:none;"
         d="M-1.4688 -1.2812 Q-1.4688 2.7969 -2.5 4.9062 Q-4.0625 8.0938 -7.2812 8.0938 Q-10.25 8.0938 -11.8125 5.3438 Q-13.0312 3.1719 -13.0312 -1.2812 Q-13.0312 -5.4375 -12.0312 -7.5469 Q-10.5 -10.7969 -7.25 -10.7969 Q-4.1094 -10.7969 -2.5625 -7.7344 Q-1.4688 -5.5625 -1.4688 -1.2812 ZM-3.75 0.0625 L-3.75 -3.3594 Q-3.75 -6.2188 -4.25 -7.7031 Q-5.0469 -10.2031 -7.2812 -10.2031 Q-9.4844 -10.2031 -10.2969 -7.6875 Q-10.7812 -6.1875 -10.7812 -3.3438 Q-10.7812 -2.8125 -10.7656 -1.7344 Q-10.7656 -0.6719 -10.7656 -0.1406 Q-10.7656 3 -10.3281 4.5938 Q-9.5625 7.5 -7.2812 7.5 Q-5.0156 7.5 -4.2031 4.7031 Q-3.75 3.125 -3.75 0.0625 Z"
         id="path99" />
    </g>
    <g
       transform="translate(117,523.3)"
       style="font-size:26.6667px; fill:rgb(38,38,38); text-rendering:geometricPrecision; image-rendering:optimizeQuality; color-rendering:optimizeQuality; font-family:'Symbola'; stroke:rgb(38,38,38); color-interpolation:linearRGB;"
       id="g105">
      <path
         style="stroke:none;"
         d="M-2.7188 7.5 Q-3.6562 7.4219 -4.5 7.4219 L-9.8281 7.4219 Q-10.6719 7.4219 -11.6094 7.5 L-11.6094 6.6562 Q-11.4531 6.6562 -11.1172 6.6719 Q-10.7812 6.6875 -10.6094 6.6875 Q-8.5938 6.6875 -8.2969 6.1094 Q-8.1875 5.875 -8.1875 5.4219 L-8.1875 -8.9062 Q-9.625 -8.2031 -11.7656 -8.2031 L-11.7656 -9.0469 Q-8.4688 -9.0469 -6.7812 -10.7969 L-6.6406 -10.7969 Q-6.2656 -10.7969 -6.1875 -10.6094 Q-6.1406 -10.5312 -6.1406 -10.0938 L-6.1406 5.4688 Q-6.1406 5.9062 -6.0312 6.125 Q-5.8438 6.5625 -4.5 6.6562 Q-4.3125 6.6719 -2.7188 6.6562 L-2.7188 7.5 Z"
         id="path103" />
    </g>
    <g
       transform="translate(117,470.6)"
       style="font-size:26.6667px; fill:rgb(38,38,38); text-rendering:geometricPrecision; image-rendering:optimizeQuality; color-rendering:optimizeQuality; font-family:'Symbola'; stroke:rgb(38,38,38); color-interpolation:linearRGB;"
       id="g109">
      <path
         style="stroke:none;"
         d="M-1.7812 2.7344 L-2.5312 7.5 L-12.7344 7.5 L-12.7344 7.2656 Q-12.7344 6.8281 -12.4219 6.4688 L-7.1406 0.6094 Q-4.2656 -2.5938 -4.2656 -5.4688 Q-4.2656 -7.3125 -5.1875 -8.5625 Q-6.1875 -9.9531 -7.9531 -9.9531 Q-9.2344 -9.9531 -10.2344 -9.1797 Q-11.2344 -8.4062 -11.6719 -7.1562 Q-11.5781 -7.1875 -11.4375 -7.1875 Q-9.8438 -7.1875 -9.8438 -5.75 Q-9.8438 -5.1406 -10.2578 -4.7188 Q-10.6719 -4.2969 -11.2656 -4.2969 Q-12.7344 -4.2969 -12.7344 -5.8281 Q-12.7344 -7.9062 -11.2031 -9.3516 Q-9.6719 -10.7969 -7.5938 -10.7969 Q-5.1562 -10.7969 -3.5 -9.375 Q-1.7812 -7.875 -1.7812 -5.4688 Q-1.7812 -3.9219 -2.7969 -2.4688 Q-3.375 -1.6406 -4.9688 -0.0781 L-10.6094 5.3906 L-5.125 5.3906 Q-3.3281 5.3906 -3.0703 5.1719 Q-2.8125 4.9531 -2.4688 2.7344 L-1.7812 2.7344 Z"
         id="path107" />
    </g>
    <g
       transform="translate(117,417.9)"
       style="font-size:26.6667px; fill:rgb(38,38,38); text-rendering:geometricPrecision; image-rendering:optimizeQuality; color-rendering:optimizeQuality; font-family:'Symbola'; stroke:rgb(38,38,38); color-interpolation:linearRGB;"
       id="g113">
      <path
         style="stroke:none;"
         d="M-1.5469 2.8125 Q-1.5469 5.0781 -3.3594 6.625 Q-5.0938 8.0938 -7.3906 8.0938 Q-9.4844 8.0938 -11.1094 7.0156 Q-12.9531 5.7812 -12.9531 3.7969 Q-12.9531 3.0938 -12.5312 2.6484 Q-12.1094 2.2031 -11.4219 2.2031 Q-10.75 2.2031 -10.3125 2.6406 Q-9.875 3.0781 -9.875 3.75 Q-9.875 4.4219 -10.3281 4.8438 Q-10.7812 5.2656 -11.4375 5.2656 Q-11.5781 5.2656 -11.7031 5.25 Q-11.0938 6.2656 -9.875 6.8281 Q-8.75 7.3438 -7.4844 7.3438 Q-5.8438 7.3438 -5.0156 5.8125 Q-4.3906 4.6094 -4.3906 2.8125 Q-4.3906 0.8906 -5.0625 -0.2812 Q-5.8906 -1.7656 -7.6562 -1.7656 L-9.0781 -1.7656 Q-9.5156 -1.7656 -9.5156 -2.0781 Q-9.5156 -2.3594 -8.8906 -2.4375 Q-8.4531 -2.4531 -8.0312 -2.4844 Q-6.3906 -2.5781 -5.5938 -3.9062 Q-4.8281 -5.1406 -4.8281 -7.0469 Q-4.8281 -8.3906 -5.4531 -9.2188 Q-6.1562 -10.1406 -7.4531 -10.1406 Q-10.0156 -10.1406 -11.125 -8.4219 Q-9.4219 -8.4531 -9.4219 -7.0469 Q-9.4219 -6.4375 -9.8125 -6.0391 Q-10.2031 -5.6406 -10.8125 -5.6406 Q-11.4375 -5.6406 -11.8281 -6.0312 Q-12.2188 -6.4219 -12.2188 -7.0625 Q-12.2188 -8.7969 -10.5938 -9.8594 Q-9.1719 -10.7969 -7.3438 -10.7969 Q-5.4688 -10.7969 -4 -9.8594 Q-2.2812 -8.7812 -2.2812 -7.0156 Q-2.2812 -5.3594 -3.4219 -4 Q-4.5 -2.7188 -6.1406 -2.1719 Q-4.2344 -1.7969 -2.9375 -0.4688 Q-1.5469 0.9375 -1.5469 2.8125 Z"
         id="path111" />
    </g>
    <g
       transform="translate(117,365.2)"
       style="font-size:26.6667px; fill:rgb(38,38,38); text-rendering:geometricPrecision; image-rendering:optimizeQuality; color-rendering:optimizeQuality; font-family:'Symbola'; stroke:rgb(38,38,38); color-interpolation:linearRGB;"
       id="g117">
      <path
         style="stroke:none;"
         d="M-1.1719 2.9531 L-3.9219 2.9531 L-3.9219 5.5312 Q-3.9219 5.9375 -3.7969 6.1719 Q-3.5469 6.6719 -1.2344 6.6562 L-1.2344 7.5 Q-2.3281 7.4219 -3.1094 7.4219 L-6.875 7.4219 Q-7.6094 7.4219 -8.7031 7.5 L-8.7031 6.6562 Q-8.0781 6.6719 -7.8594 6.6719 Q-6.4062 6.6719 -6.1406 6.1719 Q-6.0312 5.9375 -6.0312 5.5312 L-6.0312 2.9531 L-13.3438 2.9531 L-13.3438 2.1094 L-4.9062 -10.7812 Q-4.6875 -11.1094 -4.3438 -11.1094 Q-4.0156 -11.1094 -3.9375 -10.8906 Q-3.9219 -10.8125 -3.9219 -10.3906 L-3.9219 2.1094 L-1.1719 2.1094 L-1.1719 2.9531 ZM-5.8594 2.1094 L-5.8594 -8.1406 L-12.5781 2.1094 L-5.8594 2.1094 Z"
         id="path115" />
    </g>
    <g
       transform="translate(117,312.5)"
       style="font-size:26.6667px; fill:rgb(38,38,38); text-rendering:geometricPrecision; image-rendering:optimizeQuality; color-rendering:optimizeQuality; font-family:'Symbola'; stroke:rgb(38,38,38); color-interpolation:linearRGB;"
       id="g121">
      <path
         style="stroke:none;"
         d="M-1.7812 1.9688 Q-1.7812 4.4688 -3.5234 6.2812 Q-5.2656 8.0938 -7.7656 8.0938 Q-9.8125 8.0938 -11.2734 6.6016 Q-12.7344 5.1094 -12.7344 3.0625 Q-12.7344 1.6094 -11.4062 1.6094 Q-10.8281 1.6094 -10.4219 1.9922 Q-10.0156 2.375 -10.0156 2.9531 Q-10.0156 3.5312 -10.4219 3.9219 Q-10.8281 4.3125 -11.4062 4.3125 Q-11.6406 4.3125 -11.8438 4.25 Q-11.4688 5.5781 -10.3281 6.4609 Q-9.1875 7.3438 -7.8125 7.3438 Q-5.9062 7.3438 -4.8594 5.5469 Q-4.2188 4.4219 -4.2188 1.7812 Q-4.2188 -0.5625 -4.7031 -1.6719 Q-5.4844 -3.4375 -7.0469 -3.4375 Q-8.2188 -3.4375 -9.1562 -2.875 Q-9.75 -2.5156 -10.3438 -1.8281 Q-10.8438 -1.25 -10.9531 -1.25 Q-11.3438 -1.25 -11.3438 -1.7969 L-11.3438 -10.3438 Q-11.3438 -10.7812 -11.0781 -10.7812 Q-10.9531 -10.7812 -10.7344 -10.7031 Q-8.5469 -9.9219 -7.0625 -9.9219 Q-5.2812 -9.9219 -3.3438 -10.7344 Q-3.1875 -10.7969 -3.1094 -10.7969 Q-2.8438 -10.7969 -2.8438 -10.5 Q-2.8438 -10.2812 -3.3281 -9.75 Q-5.2188 -7.6406 -8.1406 -7.6406 Q-9.2812 -7.6406 -10.4688 -7.9844 L-10.4688 -2.6562 Q-9.0312 -4.0469 -6.9844 -4.0469 Q-4.6875 -4.0469 -3.1719 -2.1562 Q-1.7812 -0.3906 -1.7812 1.9688 Z"
         id="path119" />
    </g>
    <g
       transform="translate(117,259.8)"
       style="font-size:26.6667px; fill:rgb(38,38,38); text-rendering:geometricPrecision; image-rendering:optimizeQuality; color-rendering:optimizeQuality; font-family:'Symbola'; stroke:rgb(38,38,38); color-interpolation:linearRGB;"
       id="g125">
      <path
         style="stroke:none;"
         d="M-1.5469 1.8906 Q-1.5469 4.4062 -3.0938 6.2031 Q-4.7344 8.0938 -7.2031 8.0938 Q-10.3906 8.0938 -11.8438 4.8438 Q-12.9375 2.4219 -12.9375 -1.2031 Q-12.9375 -3.9062 -11.9531 -6.1406 Q-10.8281 -8.6562 -8.7188 -9.9219 Q-7.2656 -10.7969 -5.7031 -10.7969 Q-4.2344 -10.7969 -3.2812 -10.0938 Q-2.2188 -9.2812 -2.2188 -7.8594 Q-2.2188 -7.2812 -2.5625 -6.8984 Q-2.9062 -6.5156 -3.4844 -6.5156 Q-4.0156 -6.5156 -4.3828 -6.8828 Q-4.75 -7.25 -4.75 -7.7969 Q-4.75 -9.0781 -3.2344 -9.0156 Q-4 -10.1406 -5.6562 -10.1406 Q-6.7188 -10.1406 -7.7031 -9.5156 Q-10.4688 -7.7656 -10.4688 -1.5156 Q-9.3594 -4.2344 -7.0312 -4.2344 Q-4.625 -4.2344 -3.0469 -2.3438 Q-1.5469 -0.5625 -1.5469 1.8906 ZM-4 2.6094 L-4 1.2344 Q-4 -0.875 -4.5 -1.9062 Q-5.3438 -3.5938 -7.0469 -3.5938 Q-8.7656 -3.5938 -9.6719 -1.9219 Q-10.4219 -0.5625 -10.4219 1.2969 Q-10.4219 4 -9.9219 5.2656 Q-9.5781 6.1562 -8.875 6.7188 Q-8.0938 7.3438 -7.2031 7.3438 Q-5.3438 7.3438 -4.4844 5.5469 Q-4 4.5781 -4 2.6094 Z"
         id="path123" />
    </g>
    <g
       transform="translate(117,207.1)"
       style="font-size:26.6667px; fill:rgb(38,38,38); text-rendering:geometricPrecision; image-rendering:optimizeQuality; color-rendering:optimizeQuality; font-family:'Symbola'; stroke:rgb(38,38,38); color-interpolation:linearRGB;"
       id="g129">
      <path
         style="stroke:none;"
         d="M-1.3594 -10.0156 Q-1.3594 -9.5938 -1.6094 -9.2344 L-5.3438 -4.0156 Q-6.5781 -2.2969 -7.0312 0.6719 Q-7.3281 2.6562 -7.3281 6.5938 Q-7.3281 8.0938 -8.5938 8.0938 Q-9.8438 8.0938 -9.8438 6.5938 Q-9.8438 1.5312 -6.4688 -3.75 Q-5.4375 -5.1875 -3.4062 -8.0781 L-9.9844 -8.0781 Q-11.5312 -8.0781 -11.7812 -7.9219 Q-12.0938 -7.7344 -12.4688 -5.4219 L-13.1562 -5.4219 L-12.25 -11.0938 L-11.5625 -11.0938 Q-11.5312 -10.8281 -11.375 -10.6562 Q-10.9688 -10.2031 -8.0469 -10.2031 L-1.3594 -10.2031 L-1.3594 -10.0156 Z"
         id="path127" />
    </g>
    <g
       transform="translate(117,154.4)"
       style="font-size:26.6667px; fill:rgb(38,38,38); text-rendering:geometricPrecision; image-rendering:optimizeQuality; color-rendering:optimizeQuality; font-family:'Symbola'; stroke:rgb(38,38,38); color-interpolation:linearRGB;"
       id="g133">
      <path
         style="stroke:none;"
         d="M-1.5469 2.9062 Q-1.5469 5.1406 -3.3281 6.6562 Q-5 8.0938 -7.2812 8.0938 Q-9.4844 8.0938 -11.1406 6.8594 Q-12.9531 5.4844 -12.9531 3.3438 Q-12.9531 0.25 -8.9844 -1.7188 Q-9.7188 -2.1406 -11.0156 -3.1875 Q-12.2188 -4.5 -12.2188 -6.2188 Q-12.2188 -8.1875 -10.6875 -9.5156 Q-9.2344 -10.7969 -7.2344 -10.7969 Q-5.3125 -10.7969 -3.875 -9.7344 Q-2.2812 -8.5625 -2.2812 -6.7188 Q-2.2812 -4.1562 -5.6094 -2.4531 Q-4.3906 -1.7188 -4.1719 -1.5781 Q-3.3906 -1.0469 -2.9062 -0.5 Q-1.5469 0.9844 -1.5469 2.9062 ZM-3.5 -6.7188 Q-3.5 -8.1875 -4.6719 -9.1875 Q-5.7656 -10.1406 -7.2812 -10.1406 Q-8.6562 -10.1406 -9.7656 -9.4219 Q-11.0156 -8.6094 -11.0156 -7.2969 Q-11.0156 -6.0938 -9.625 -5.0781 Q-9.2344 -4.7812 -6.2344 -2.8594 Q-3.5 -4.4375 -3.5 -6.7188 ZM-2.9062 3.8594 Q-2.9062 2.8594 -3.5312 2.0781 Q-3.9688 1.5469 -4.9844 0.8516 Q-6 0.1562 -8.375 -1.2812 Q-11.5938 0.4844 -11.5938 3.3438 Q-11.5938 5.0625 -10.25 6.2344 Q-8.9844 7.3438 -7.2344 7.3438 Q-5.6094 7.3438 -4.3438 6.4375 Q-2.9062 5.4219 -2.9062 3.8594 Z"
         id="path131" />
    </g>
    <g
       transform="translate(117,101.7)"
       style="font-size:26.6667px; fill:rgb(38,38,38); text-rendering:geometricPrecision; image-rendering:optimizeQuality; color-rendering:optimizeQuality; font-family:'Symbola'; stroke:rgb(38,38,38); color-interpolation:linearRGB;"
       id="g137">
      <path
         style="stroke:none;"
         d="M-1.5469 -1.5625 Q-1.5469 0.7344 -2.1406 2.5625 Q-2.8906 4.8438 -4.4531 6.3594 Q-6.2344 8.0938 -8.4531 8.0938 Q-10.0312 8.0938 -11.0625 7.4219 Q-12.2656 6.6406 -12.2656 5.1406 Q-12.2656 3.8281 -11.0156 3.8281 Q-10.4844 3.8281 -10.1094 4.1875 Q-9.7344 4.5469 -9.7344 5.0938 Q-9.7344 5.6719 -10.1641 6.0391 Q-10.5938 6.4062 -11.1719 6.3438 Q-10.3281 7.3438 -8.4688 7.3438 Q-7.4531 7.3438 -6.5312 6.7188 Q-4.9375 5.6875 -4.375 3.1094 Q-4.0156 1.5312 -4.0156 -1.2344 Q-5.0938 1.5156 -7.4531 1.5156 Q-9.875 1.5156 -11.4531 -0.375 Q-12.9531 -2.1562 -12.9531 -4.6094 Q-12.9531 -7.2812 -11.2031 -9.0781 Q-9.5469 -10.7969 -7.1562 -10.7969 Q-5.8125 -10.7969 -4.6875 -10.0938 Q-1.5469 -8.1562 -1.5469 -1.5625 ZM-4.0781 -4.0781 Q-4.0781 -6.7344 -4.5156 -7.9375 Q-5.3438 -10.1406 -7.1562 -10.1406 Q-8.9844 -10.1406 -9.9062 -8.4062 Q-10.4844 -7.3438 -10.4844 -5.1406 L-10.4844 -4.0156 Q-10.4844 -1.8906 -9.9844 -0.875 Q-9.1406 0.875 -7.4219 0.875 Q-5.7031 0.875 -4.7969 -0.8281 Q-4.0781 -2.1875 -4.0781 -4.0781 Z"
         id="path135" />
    </g>
    <g
       transform="translate(117,49)"
       style="font-size:26.6667px; fill:rgb(38,38,38); text-rendering:geometricPrecision; image-rendering:optimizeQuality; color-rendering:optimizeQuality; font-family:'Symbola'; stroke:rgb(38,38,38); color-interpolation:linearRGB;"
       id="g141">
      <path
         style="stroke:none;"
         d="M-15.7188 7.5 Q-16.6562 7.4219 -17.5 7.4219 L-22.8281 7.4219 Q-23.6719 7.4219 -24.6094 7.5 L-24.6094 6.6562 Q-24.4531 6.6562 -24.1172 6.6719 Q-23.7812 6.6875 -23.6094 6.6875 Q-21.5938 6.6875 -21.2969 6.1094 Q-21.1875 5.875 -21.1875 5.4219 L-21.1875 -8.9062 Q-22.625 -8.2031 -24.7656 -8.2031 L-24.7656 -9.0469 Q-21.4688 -9.0469 -19.7812 -10.7969 L-19.6406 -10.7969 Q-19.2656 -10.7969 -19.1875 -10.6094 Q-19.1406 -10.5312 -19.1406 -10.0938 L-19.1406 5.4688 Q-19.1406 5.9062 -19.0312 6.125 Q-18.8438 6.5625 -17.5 6.6562 Q-17.3125 6.6719 -15.7188 6.6562 L-15.7188 7.5 ZM-1.1406 -1.2812 Q-1.1406 2.7969 -2.1719 4.9062 Q-3.7344 8.0938 -6.9531 8.0938 Q-9.9219 8.0938 -11.4844 5.3438 Q-12.7031 3.1719 -12.7031 -1.2812 Q-12.7031 -5.4375 -11.7031 -7.5469 Q-10.1719 -10.7969 -6.9219 -10.7969 Q-3.7812 -10.7969 -2.2344 -7.7344 Q-1.1406 -5.5625 -1.1406 -1.2812 ZM-3.4219 0.0625 L-3.4219 -3.3594 Q-3.4219 -6.2188 -3.9219 -7.7031 Q-4.7188 -10.2031 -6.9531 -10.2031 Q-9.1562 -10.2031 -9.9688 -7.6875 Q-10.4531 -6.1875 -10.4531 -3.3438 Q-10.4531 -2.8125 -10.4375 -1.7344 Q-10.4375 -0.6719 -10.4375 -0.1406 Q-10.4375 3 -10 4.5938 Q-9.2344 7.5 -6.9531 7.5 Q-4.6875 7.5 -3.875 4.7031 Q-3.4219 3.125 -3.4219 0.0625 Z"
         id="path139" />
    </g>
    <g
       transform="translate(86,312.4998) rotate(-90)"
       style="font-size:29.3333px; fill:rgb(38,38,38); text-rendering:geometricPrecision; image-rendering:optimizeQuality; color-rendering:optimizeQuality; font-family:'mwa_cmr10'; stroke:rgb(38,38,38); color-interpolation:linearRGB;"
       id="g145">
      <path
         style="stroke:none;"
         d="M-5.7408 -5.7945 Q-5.1939 -5.357 -4.522 -5.357 Q-2.6939 -5.357 -1.5377 -8.1226 L-0.5533 -10.5601 L-4.897 -21.2164 Q-5.1627 -21.7476 -5.7173 -21.896 Q-6.272 -22.0445 -7.1939 -22.0445 L-7.1939 -23.0601 L-1.1002 -23.0601 L-1.1002 -22.0445 Q-2.6939 -22.0445 -2.6939 -21.357 Q-2.6939 -21.232 -2.6783 -21.1851 L0.5561 -13.2476 L3.4623 -20.3882 Q3.5405 -20.607 3.5405 -20.8882 Q3.5405 -21.232 3.353 -21.4976 Q3.1655 -21.7632 2.8608 -21.9039 Q2.5561 -22.0445 2.1655 -22.0445 L2.1655 -23.0601 L6.9936 -23.0601 L6.9936 -22.0445 Q6.0873 -22.0445 5.4155 -21.6304 Q4.7436 -21.2164 4.3842 -20.4195 L-0.6314 -8.1226 Q-1.022 -7.1851 -1.5533 -6.4039 Q-2.0845 -5.6226 -2.8502 -5.1148 Q-3.6158 -4.607 -4.522 -4.607 Q-5.5845 -4.607 -6.3892 -5.3101 Q-7.1939 -6.0132 -7.1939 -7.0445 Q-7.1939 -7.5914 -6.8267 -7.9585 Q-6.4595 -8.3257 -5.9127 -8.3257 Q-5.5533 -8.3257 -5.2564 -8.1617 Q-4.9595 -7.9976 -4.8033 -7.7164 Q-4.647 -7.4351 -4.647 -7.0445 Q-4.647 -6.5757 -4.9517 -6.2085 Q-5.2564 -5.8414 -5.7408 -5.7945 Z"
         id="path143" />
    </g>
    <g
       transform="translate(411.5,350.9376)"
       style="stroke-linecap:butt; fill:red; text-rendering:geometricPrecision; color-rendering:optimizeQuality; image-rendering:optimizeQuality; stroke:red; color-interpolation:linearRGB; stroke-width:1.3333;"
       id="g149">
      <path
         style="fill:none;"
         d="M0 -4 L0 4 M-4 0 L4 0"
         id="path147" />
    </g>
    <g
       style="stroke-linecap:butt; fill:rgb(22,102,66); text-rendering:geometricPrecision; image-rendering:optimizeQuality; color-rendering:optimizeQuality; stroke-linejoin:round; stroke:rgb(22,102,66); color-interpolation:linearRGB; stroke-width:2.6667;"
       id="g153">
      <path
         d="M656.1791 350.9376 L655.6865 339.9453 L654.2107 328.9973 L651.7575 318.1377 L648.3369 307.4101 L643.9626 296.8577 L638.6523 286.5232 L632.4273 276.448 L625.3127 266.6727 L617.3372 257.2368 L608.5328 248.1781 L598.9351 239.5333 L588.5826 231.337 L577.5171 223.6223 L565.7831 216.4203 L553.4279 209.7599 L540.5011 203.668 L527.0549 198.1691 L513.1434 193.2853 L498.8226 189.0363 L484.1502 185.4393 L469.1853 182.5087 L453.9881 180.2563 L438.6198 178.6911 L423.1423 177.8195 L407.6179 177.6451 L392.1092 178.1683 L376.6785 179.3873 L361.3881 181.2971 L346.2994 183.8899 L331.4733 187.1554 L316.9694 191.0803 L302.8462 195.649 L289.1604 200.843 L275.9673 206.6413 L263.3199 213.0206 L251.2692 219.9553 L239.8637 227.4174 L229.1493 235.3769 L219.1692 243.8018 L209.9635 252.658 L201.5694 261.9099 L194.0205 271.5204 L187.3474 281.4506 L181.5768 291.6606 L176.7321 302.1093 L172.8327 312.7546 L169.8943 323.5537 L167.9288 334.463 L166.944 345.4387 L166.944 356.4365 L167.9288 367.4122 L169.8943 378.3215 L172.8327 389.1206 L176.7321 399.7659 L181.5768 410.2146 L187.3474 420.4247 L194.0205 430.3549 L201.5694 439.9653 L209.9635 449.2173 L219.1692 458.0735 L229.1493 466.4983 L239.8637 474.4578 L251.2692 481.9199 L263.3199 488.8546 L275.9673 495.2339 L289.1604 501.0323 L302.8462 506.2263 L316.9694 510.7949 L331.4733 514.7198 L346.2994 517.9854 L361.3881 520.5782 L376.6785 522.4879 L392.1092 523.7069 L407.6179 524.2302 L423.1423 524.0557 L438.6198 523.1841 L453.9881 521.619 L469.1853 519.3666 L484.1502 516.4359 L498.8226 512.8389 L513.1434 508.5899 L527.0549 503.7062 L540.5011 498.2073 L553.4279 492.1154 L565.7831 485.455 L577.5171 478.2529 L588.5826 470.5382 L598.9351 462.342 L608.5328 453.6971 L617.3372 444.6385 L625.3127 435.2025 L632.4273 425.4273 L638.6523 415.3521 L643.9626 405.0175 L648.3369 394.4652 L651.7575 383.7376 L654.2107 372.8779 L655.6865 361.9299 L656.1791 350.9376"
         style="fill:none; fill-rule:evenodd;"
         id="path151" />
    </g>
    <g
       transform="translate(412.5,352.9607)"
       style="stroke-linecap:butt; fill:red; text-rendering:geometricPrecision; color-rendering:optimizeQuality; image-rendering:optimizeQuality; stroke:red; color-interpolation:linearRGB; stroke-width:1.3333;"
       id="g161">
      <path
         style="fill:none;"
         d="M0 -4 L0 4 M-4 0 L4 0"
         id="path155" />
      <path
         transform="translate(-412.5,-352.9607)"
         style="fill:none; stroke-width:2.6667; fill-rule:evenodd; stroke-linejoin:round;"
         d="M479.7662 352.9607 L479.6308 349.9387 L479.225 346.9289 L478.5506 343.9434 L477.6103 340.9942 L476.4077 338.0932 L474.9478 335.2521 L473.2365 332.4823 L471.2805 329.7949 L469.088 327.2008 L466.6675 324.7104 L464.0289 322.3338 L461.1828 320.0805 L458.1407 317.9597 L454.9149 315.9797 L451.5182 314.1486 L447.9644 312.4739 L444.2679 310.9621 L440.4434 309.6195 L436.5064 308.4514 L432.4727 307.4625 L428.3586 306.6569 L424.1807 306.0376 L419.9557 305.6073 L415.7007 305.3677 L411.4328 305.3198 L407.1692 305.4636 L402.927 305.7987 L398.7234 306.3237 L394.5753 307.0366 L390.4994 307.9343 L386.512 309.0133 L382.6293 310.2693 L378.8669 311.6972 L375.2399 313.2913 L371.7629 315.0451 L368.45 316.9515 L365.3145 319.003 L362.3689 321.1912 L359.6252 323.5073 L357.0944 325.942 L354.7867 328.4855 L352.7114 331.1276 L350.8769 333.8575 L349.2904 336.6645 L347.9586 339.537 L346.8865 342.4635 L346.0787 345.4324 L345.5384 348.4315 L345.2677 351.4489 L345.2677 354.4724 L345.5384 357.4898 L346.0787 360.4889 L346.8865 363.4578 L347.9586 366.3843 L349.2904 369.2569 L350.8769 372.0638 L352.7114 374.7937 L354.7867 377.4358 L357.0944 379.9793 L359.6252 382.414 L362.3689 384.7301 L365.3145 386.9183 L368.45 388.9698 L371.7629 390.8762 L375.2399 392.63 L378.8669 394.2241 L382.6293 395.652 L386.512 396.908 L390.4994 397.987 L394.5753 398.8847 L398.7234 399.5976 L402.927 400.1226 L407.1692 400.4577 L411.4328 400.6016 L415.7007 400.5536 L419.9557 400.314 L424.1807 399.8837 L428.3586 399.2645 L432.4727 398.4588 L436.5064 397.4699 L440.4434 396.3018 L444.2679 394.9592 L447.9644 393.4474 L451.5182 391.7727 L454.9149 389.9416 L458.1407 387.9617 L461.1828 385.8408 L464.0289 383.5875 L466.6675 381.2109 L469.088 378.7205 L471.2805 376.1264 L473.2365 373.4391 L474.9478 370.6692 L476.4077 367.8281 L477.6103 364.9271 L478.5506 361.9779 L479.225 358.9924 L479.6308 355.9826 L479.7662 352.9607"
         id="path157" />
      <path
         d="M0 -4 L0 4 M-4 0 L4 0"
         style="fill:none;"
         transform="translate(171,-80.9213)"
         id="path159" />
    </g>
    <g
       style="stroke-linecap:butt; fill:rgb(39,211,137); text-rendering:geometricPrecision; image-rendering:optimizeQuality; color-rendering:optimizeQuality; stroke-linejoin:round; stroke:rgb(39,211,137); color-interpolation:linearRGB; stroke-width:2.6667;"
       id="g165">
      <path
         d="M677.6406 272.0393 L677.451 267.8101 L676.8832 263.5978 L675.9393 259.4195 L674.6233 255.2921 L672.9402 251.232 L670.8972 247.2558 L668.5021 243.3794 L665.7647 239.6183 L662.6961 235.9878 L659.3087 232.5025 L655.6158 229.1764 L651.6328 226.0229 L647.3752 223.0546 L642.8606 220.2836 L638.1069 217.721 L633.1334 215.3772 L627.9599 213.2615 L622.6074 211.3824 L617.0975 209.7476 L611.4523 208.3637 L605.6945 207.2361 L599.8474 206.3695 L593.9344 205.7673 L587.9794 205.4319 L582.0063 205.3648 L576.0394 205.5662 L570.1024 206.0352 L564.2194 206.7699 L558.414 207.7675 L552.7097 209.0239 L547.1292 210.5341 L541.6953 212.2919 L536.4297 214.2903 L531.3536 216.5212 L526.4875 218.9756 L521.851 221.6437 L517.4628 224.5148 L513.3403 227.5773 L509.5005 230.8187 L505.9586 234.2262 L502.7289 237.7858 L499.8245 241.4835 L497.257 245.3041 L495.0368 249.2324 L493.1727 253.2526 L491.6725 257.3484 L490.5419 261.5033 L489.7857 265.7007 L489.4068 269.9236 L489.4068 274.1551 L489.7857 278.378 L490.5419 282.5753 L491.6725 286.7303 L493.1727 290.8261 L495.0368 294.8463 L497.257 298.7746 L499.8245 302.5952 L502.7289 306.2928 L505.9586 309.8525 L509.5005 313.26 L513.3403 316.5014 L517.4628 319.5639 L521.851 322.4349 L526.4875 325.1031 L531.3536 327.5575 L536.4297 329.7885 L541.6953 331.7868 L547.1292 333.5446 L552.7097 335.0548 L558.414 336.3112 L564.2194 337.3088 L570.1024 338.0435 L576.0394 338.5125 L582.0063 338.7139 L587.9794 338.6468 L593.9344 338.3114 L599.8474 337.7092 L605.6945 336.8426 L611.4523 335.715 L617.0975 334.3311 L622.6074 332.6963 L627.9599 330.8172 L633.1334 328.7015 L638.1069 326.3577 L642.8606 323.7951 L647.3752 321.0241 L651.6328 318.0558 L655.6158 314.9023 L659.3087 311.5762 L662.6961 308.0909 L665.7647 304.4604 L668.5021 300.6993 L670.8972 296.8229 L672.9402 292.8466 L674.6233 288.7866 L675.9393 284.6592 L676.8832 280.4809 L677.451 276.2686 L677.6406 272.0393"
         style="fill:none; fill-rule:evenodd;"
         id="path163" />
    </g>
    <g
       transform="translate(524.5,273.0509)"
       style="stroke-linecap:butt; fill:red; text-rendering:geometricPrecision; color-rendering:optimizeQuality; image-rendering:optimizeQuality; stroke:red; color-interpolation:linearRGB; stroke-width:1.3333;"
       id="g177">
      <path
         style="fill:none;"
         d="M0 -4 L0 4 M-4 0 L4 0"
         id="path167" />
      <path
         transform="translate(-524.5,-273.0509)"
         style="fill:none; stroke-width:2.6667; fill-rule:evenodd; stroke-linejoin:round;"
         d="M553.8058 273.0509 L553.7468 271.7343 L553.5701 270.423 L553.2762 269.1223 L552.8665 267.8375 L552.3426 266.5736 L551.7065 265.3358 L550.961 264.1291 L550.1089 262.9583 L549.1536 261.8281 L548.0991 260.7431 L546.9496 259.7077 L545.7097 258.726 L544.3843 257.802 L542.9788 256.9394 L541.499 256.1417 L539.9507 255.412 L538.3403 254.7534 L536.6741 254.1685 L534.9589 253.6595 L533.2015 253.2287 L531.4091 252.8777 L529.5889 252.6079 L527.7482 252.4205 L525.8944 252.3161 L524.035 252.2952 L522.1775 252.3578 L520.3293 252.5039 L518.498 252.7326 L516.6908 253.0432 L514.915 253.4343 L513.1779 253.9044 L511.4863 254.4516 L509.8471 255.0737 L508.2669 255.7681 L506.7521 256.5322 L505.3088 257.3628 L503.9427 258.2566 L502.6594 259.2099 L501.4641 260.2189 L500.3615 261.2797 L499.3561 262.3878 L498.452 263.5389 L497.6527 264.7282 L496.9615 265.9511 L496.3813 267.2026 L495.9142 268.4776 L495.5623 269.771 L495.3269 271.0777 L495.2089 272.3922 L495.2089 273.7095 L495.3269 275.0241 L495.5623 276.3307 L495.9142 277.6241 L496.3813 278.8992 L496.9615 280.1506 L497.6527 281.3735 L498.452 282.5629 L499.3561 283.7139 L500.3615 284.8221 L501.4641 285.8828 L502.6594 286.8918 L503.9427 287.8452 L505.3088 288.7389 L506.7521 289.5695 L508.2669 290.3336 L509.8471 291.0281 L511.4863 291.6501 L513.1779 292.1974 L514.915 292.6674 L516.6908 293.0586 L518.498 293.3691 L520.3293 293.5978 L522.1775 293.7439 L524.035 293.8065 L525.8944 293.7856 L527.7482 293.6812 L529.5889 293.4938 L531.4091 293.224 L533.2015 292.873 L534.9589 292.4422 L536.6741 291.9333 L538.3403 291.3483 L539.9507 290.6897 L541.499 289.9601 L542.9788 289.1623 L544.3843 288.2997 L545.7097 287.3757 L546.9496 286.394 L548.0991 285.3586 L549.1536 284.2737 L550.1089 283.1435 L550.961 281.9727 L551.7065 280.7659 L552.3426 279.5281 L552.8665 278.2643 L553.2762 276.9794 L553.5701 275.6787 L553.7468 274.3674 L553.8058 273.0509"
         id="path169" />
      <path
         d="M0 -4 L0 4 M-4 0 L4 0"
         style="fill:none;"
         transform="translate(25,135.5432)"
         id="path171" />
      <path
         transform="translate(-524.5,-273.0509)"
         style="fill:none; stroke-width:2.6667; fill-rule:evenodd; stroke-linejoin:round;"
         d="M599.8559 408.5941 L599.7545 406.3318 L599.4508 404.0786 L598.9459 401.8437 L598.2419 399.6359 L597.3417 397.4642 L596.2488 395.3373 L594.9677 393.2638 L593.5035 391.252 L591.8621 389.3101 L590.0501 387.4457 L588.0748 385.6666 L585.9443 383.9798 L583.6669 382.3921 L581.2521 380.9099 L578.7093 379.5391 L576.049 378.2854 L573.2817 377.1537 L570.4186 376.1486 L567.4714 375.2741 L564.4517 374.5338 L561.3719 373.9307 L558.2442 373.4672 L555.0814 373.1451 L551.896 372.9657 L548.701 372.9298 L545.5093 373.0374 L542.3336 373.2883 L539.1868 373.6814 L536.0815 374.215 L533.0302 374.887 L530.0452 375.6948 L527.1386 376.635 L524.322 377.704 L521.6068 378.8973 L519.004 380.2102 L516.5239 381.6374 L514.1766 383.1731 L511.9715 384.8112 L509.9176 386.5451 L508.023 388.3677 L506.2955 390.2718 L504.7419 392.2497 L503.3685 394.2933 L502.1809 396.3946 L501.1838 398.545 L500.3813 400.7358 L499.7766 402.9583 L499.3721 405.2035 L499.1694 407.4623 L499.1694 409.7257 L499.3721 411.9846 L499.7766 414.2298 L500.3813 416.4523 L501.1838 418.6431 L502.1809 420.7935 L503.3685 422.8947 L504.7419 424.9384 L506.2955 426.9163 L508.023 428.8204 L509.9176 430.643 L511.9715 432.3769 L514.1766 434.015 L516.5239 435.5507 L519.004 436.9779 L521.6068 438.2908 L524.322 439.4841 L527.1386 440.553 L530.0452 441.4933 L533.0302 442.3011 L536.0815 442.9731 L539.1868 443.5067 L542.3336 443.8998 L545.5093 444.1506 L548.701 444.2583 L551.896 444.2224 L555.0814 444.0431 L558.2442 443.7209 L561.3719 443.2574 L564.4517 442.6542 L567.4714 441.914 L570.4186 441.0395 L573.2817 440.0344 L576.049 438.9027 L578.7093 437.649 L581.2521 436.2783 L583.6669 434.7961 L585.9443 433.2083 L588.0748 431.5215 L590.0501 429.7423 L591.8621 427.8781 L593.5035 425.9361 L594.9677 423.9243 L596.2488 421.8508 L597.3417 419.7239 L598.2419 417.5522 L598.9459 415.3444 L599.4508 413.1094 L599.7545 410.8563 L599.8559 408.5941"
         id="path173" />
      <path
         d="M0 -4 L0 4 M-4 0 L4 0"
         style="fill:none;"
         transform="translate(-207,-32.3685)"
         id="path175" />
    </g>
    <g
       style="stroke-linecap:butt; fill:rgb(198,208,222); text-rendering:geometricPrecision; image-rendering:optimizeQuality; color-rendering:optimizeQuality; stroke-linejoin:round; stroke:rgb(198,208,222); color-interpolation:linearRGB; stroke-width:2.6667;"
       id="g181">
      <path
         d="M405.2786 240.6823 L405.1019 236.7388 L404.5724 232.8113 L403.6924 228.9154 L402.4652 225.0668 L400.8959 221.2812 L398.9909 217.5737 L396.7577 213.9592 L394.2053 210.4523 L391.3441 207.0672 L388.1855 203.8174 L384.7423 200.716 L381.0284 197.7756 L377.0586 195.008 L372.8491 192.4243 L368.4166 190.0348 L363.7791 187.8494 L358.9553 185.8766 L353.9646 184.1246 L348.827 182.6003 L343.5633 181.3098 L338.1946 180.2585 L332.7426 179.4504 L327.2292 178.8889 L321.6767 178.5762 L316.1073 178.5136 L310.5435 178.7014 L305.0078 179.1387 L299.5223 179.8238 L294.1093 180.754 L288.7904 181.9255 L283.5872 183.3335 L278.5204 184.9725 L273.6107 186.8359 L268.8777 188.916 L264.3404 191.2046 L260.0172 193.6925 L255.9255 196.3695 L252.0817 199.2249 L248.5013 202.2474 L245.1988 205.4245 L242.1874 208.7437 L239.4792 212.1914 L237.0853 215.7539 L235.0151 219.4167 L233.277 223.1652 L231.8781 226.9842 L230.824 230.8584 L230.1188 234.7721 L229.7656 238.7096 L229.7656 242.6551 L230.1188 246.5926 L230.824 250.5063 L231.8781 254.3805 L233.277 258.1995 L235.0151 261.948 L237.0853 265.6108 L239.4792 269.1733 L242.1874 272.621 L245.1988 275.9402 L248.5013 279.1173 L252.0817 282.1397 L255.9255 284.9952 L260.0172 287.6722 L264.3404 290.1601 L268.8777 292.4486 L273.6107 294.5288 L278.5204 296.3921 L283.5872 298.0311 L288.7904 299.4392 L294.1093 300.6107 L299.5223 301.5409 L305.0078 302.226 L310.5435 302.6633 L316.1073 302.851 L321.6767 302.7885 L327.2292 302.4758 L332.7426 301.9143 L338.1946 301.1062 L343.5633 300.0549 L348.827 298.7644 L353.9646 297.2401 L358.9553 295.4881 L363.7791 293.5153 L368.4166 291.3299 L372.8491 288.9404 L377.0586 286.3567 L381.0284 283.5891 L384.7423 280.6487 L388.1855 277.5473 L391.3441 274.2975 L394.2053 270.9124 L396.7577 267.4055 L398.9909 263.791 L400.8959 260.0835 L402.4652 256.2979 L403.6924 252.4493 L404.5724 248.5534 L405.1019 244.6258 L405.2786 240.6823"
         style="fill:none; fill-rule:evenodd;"
         id="path179" />
    </g>
    <g
       transform="translate(475.5,160.7725)"
       style="stroke-linecap:butt; fill:red; text-rendering:geometricPrecision; color-rendering:optimizeQuality; image-rendering:optimizeQuality; stroke:red; color-interpolation:linearRGB; stroke-width:1.3333;"
       id="g185">
      <path
         style="fill:none;"
         d="M0 -4 L0 4 M-4 0 L4 0"
         id="path183" />
    </g>
    <g
       style="stroke-linecap:butt; fill:rgb(22,102,66); text-rendering:geometricPrecision; image-rendering:optimizeQuality; color-rendering:optimizeQuality; stroke-linejoin:round; stroke:rgb(22,102,66); color-interpolation:linearRGB; stroke-width:2.6667;"
       id="g189">
      <path
         d="M524.7075 160.7725 L524.6084 158.5619 L524.3115 156.3601 L523.8182 154.1761 L523.1303 152.0188 L522.2505 149.8965 L521.1826 147.8182 L519.9307 145.7919 L518.4999 143.826 L516.8959 141.9284 L515.1253 140.1066 L513.1951 138.368 L511.1131 136.7197 L508.8877 135.1682 L506.5279 133.7198 L504.0431 132.3803 L501.4434 131.1551 L498.7393 130.0492 L495.9415 129.0671 L493.0615 128.2126 L490.1107 127.4892 L487.1011 126.8998 L484.0448 126.4468 L480.9541 126.132 L477.8414 125.9568 L474.7193 125.9216 L471.6003 126.0269 L468.497 126.272 L465.422 126.6561 L462.3875 127.1776 L459.4058 127.8343 L456.4889 128.6237 L453.6486 129.5424 L450.8963 130.587 L448.243 131.7531 L445.6995 133.0361 L443.276 134.4307 L440.9822 135.9314 L438.8274 137.5322 L436.8203 139.2265 L434.969 141.0075 L433.2808 142.8682 L431.7627 144.8009 L430.4207 146.798 L429.2601 148.8513 L428.2858 150.9527 L427.5016 153.0936 L426.9107 155.2654 L426.5154 157.4594 L426.3173 159.6667 L426.3173 161.8784 L426.5154 164.0858 L426.9107 166.2797 L427.5016 168.4515 L428.2858 170.5924 L429.2601 172.6938 L430.4207 174.7471 L431.7627 176.7442 L433.2808 178.6769 L434.969 180.5376 L436.8203 182.3186 L438.8274 184.013 L440.9822 185.6137 L443.276 187.1144 L445.6995 188.509 L448.243 189.792 L450.8963 190.9581 L453.6486 192.0027 L456.4889 192.9215 L459.4058 193.7108 L462.3875 194.3675 L465.422 194.889 L468.497 195.2731 L471.6003 195.5182 L474.7193 195.6234 L477.8414 195.5884 L480.9541 195.4131 L484.0448 195.0983 L487.1011 194.6453 L490.1107 194.0559 L493.0615 193.3325 L495.9415 192.478 L498.7393 191.4958 L501.4434 190.39 L504.0431 189.1648 L506.5279 187.8254 L508.8877 186.377 L511.1131 184.8255 L513.1951 183.1771 L515.1253 181.4385 L516.8959 179.6167 L518.4999 177.7191 L519.9307 175.7532 L521.1826 173.727 L522.2505 171.6486 L523.1303 169.5264 L523.8182 167.369 L524.3115 165.185 L524.6084 162.9832 L524.7075 160.7725"
         style="fill:none; fill-rule:evenodd;"
         id="path187" />
    </g>
    <g
       transform="translate(735.5,108.1737)"
       style="stroke-linecap:butt; fill:red; text-rendering:geometricPrecision; color-rendering:optimizeQuality; image-rendering:optimizeQuality; stroke:red; color-interpolation:linearRGB; stroke-width:1.3333;"
       id="g209">
      <path
         style="fill:none;"
         d="M0 -4 L0 4 M-4 0 L4 0"
         id="path191" />
      <path
         transform="translate(-735.5,-108.1737)"
         style="fill:none; stroke-width:2.6667; fill-rule:evenodd; stroke-linejoin:round;"
         d="M784.9749 108.1737 L784.8752 105.951 L784.5768 103.7373 L784.0808 101.5414 L783.3892 99.3723 L782.5046 97.2386 L781.4309 95.1489 L780.1722 93.1117 L778.7336 91.1351 L777.1209 89.2271 L775.3406 87.3954 L773.4 85.6474 L771.3066 83.9901 L769.0692 82.4301 L766.6965 80.9739 L764.1982 79.6271 L761.5844 78.3953 L758.8655 77.2834 L756.0526 76.2959 L753.1569 75.4367 L750.1901 74.7095 L747.1641 74.1169 L744.0912 73.6614 L740.9837 73.3449 L737.8541 73.1687 L734.715 73.1334 L731.5792 73.2392 L728.459 73.4857 L725.3672 73.8718 L722.3163 74.3961 L719.3184 75.0564 L716.3856 75.8501 L713.5298 76.7739 L710.7626 77.8241 L708.0948 78.9966 L705.5375 80.2865 L703.1008 81.6887 L700.7946 83.1975 L698.6281 84.807 L696.6101 86.5105 L694.7487 88.3012 L693.0514 90.172 L691.525 92.1153 L690.1757 94.1232 L689.0089 96.1877 L688.0292 98.3005 L687.2407 100.453 L686.6466 102.6366 L686.2491 104.8425 L686.05 107.0618 L686.05 109.2856 L686.2491 111.5049 L686.6466 113.7108 L687.2407 115.8944 L688.0292 118.0469 L689.0089 120.1597 L690.1757 122.2242 L691.525 124.2321 L693.0514 126.1754 L694.7487 128.0461 L696.6101 129.8369 L698.6281 131.5404 L700.7946 133.1498 L703.1008 134.6587 L705.5375 136.0609 L708.0948 137.3509 L710.7626 138.5233 L713.5298 139.5735 L716.3856 140.4974 L719.3184 141.291 L722.3163 141.9513 L725.3672 142.4755 L728.459 142.8617 L731.5792 143.1082 L734.715 143.214 L737.8541 143.1787 L740.9837 143.0025 L744.0912 142.686 L747.1641 142.2306 L750.1901 141.638 L753.1569 140.9106 L756.0526 140.0515 L758.8655 139.064 L761.5844 137.9521 L764.1982 136.7203 L766.6965 135.3735 L769.0692 133.9172 L771.3066 132.3573 L773.4 130.7 L775.3406 128.952 L777.1209 127.1203 L778.7336 125.2123 L780.1722 123.2357 L781.4309 121.1985 L782.5046 119.1088 L783.3892 116.9751 L784.0808 114.8059 L784.5768 112.6101 L784.8752 110.3964 L784.9749 108.1737"
         id="path193" />
      <path
         d="M0 -4 L0 4 M-4 0 L4 0"
         style="fill:none;"
         transform="translate(73,231.6372)"
         id="path195" />
      <path
         transform="translate(-735.5,-108.1737)"
         style="fill:none; stroke-width:2.6667; fill-rule:evenodd; stroke-linejoin:round;"
         d="M869.0887 260.5321 L868.6138 260.3379 L861.3768 257.7972 L853.9269 255.5869 L846.294 253.7156 L838.509 252.191 L830.6031 251.0193 L822.6082 250.2051 L814.5566 249.7517 L806.4805 249.6609 L798.4125 249.9331 L790.3853 250.5673 L782.4308 251.5607 L774.5814 252.9096 L766.8686 254.6084 L759.3234 256.6502 L751.9763 259.0269 L744.8566 261.7289 L737.9933 264.7453 L731.4139 268.064 L725.145 271.6715 L719.2116 275.5534 L713.6378 279.6941 L708.4459 284.0768 L703.6569 288.6841 L699.2902 293.4971 L695.3631 298.4966 L691.8916 303.6625 L688.8896 308.9739 L686.3693 314.4095 L684.3408 319.9474 L682.8122 325.5653 L681.7897 331.2406 L681.2774 336.9503 L681.2774 342.6716 L681.7897 348.3813 L682.8122 354.0565 L684.3408 359.6744 L686.3693 365.2123 L688.8896 370.6479 L691.8916 375.9594 L695.3631 381.1253 L699.2902 386.1248 L703.6569 390.9378 L708.4459 395.545 L713.6378 399.9278 L719.2116 404.0685 L725.145 407.9504 L731.4139 411.558 L737.9933 414.8766 L744.8566 417.893 L751.9763 420.595 L759.3234 422.9717 L766.8686 425.0135 L774.5814 426.7123 L782.4308 428.0611 L790.3853 429.0546 L798.4125 429.6888 L806.4805 429.961 L814.5566 429.8702 L822.6082 429.4168 L830.6031 428.6026 L838.509 427.4308 L846.294 425.9062 L853.9269 424.035 L861.3768 421.8246 L868.6138 419.284 L869.0887 419.0898"
         id="path197" />
      <path
         d="M0 -4 L0 4 M-4 0 L4 0"
         style="fill:none;"
         transform="translate(40,89.0134)"
         id="path199" />
      <path
         transform="translate(-735.5,-108.1737)"
         style="fill:none; stroke-width:2.6667; fill-rule:evenodd; stroke-linejoin:round;"
         d="M812.6824 197.1871 L812.6075 195.5167 L812.3832 193.853 L812.0104 192.2027 L811.4907 190.5725 L810.826 188.9689 L810.0189 187.3985 L809.073 185.8674 L807.9918 184.3819 L806.7798 182.948 L805.4419 181.5714 L803.9834 180.2577 L802.4102 179.0122 L800.7286 177.8398 L798.9455 176.7453 L797.0679 175.7332 L795.1036 174.8074 L793.0602 173.9718 L790.9461 173.2296 L788.7699 172.584 L786.5402 172.0374 L784.2661 171.592 L781.9567 171.2497 L779.6213 171.0119 L777.2692 170.8794 L774.9101 170.8529 L772.5533 170.9324 L770.2084 171.1177 L767.8848 171.4079 L765.5919 171.8019 L763.3388 172.2981 L761.1348 172.8946 L758.9885 173.5889 L756.9088 174.3782 L754.9039 175.2593 L752.9819 176.2287 L751.1507 177.2826 L749.4175 178.4165 L747.7892 179.6261 L746.2726 180.9064 L744.8737 182.2522 L743.5981 183.6581 L742.451 185.1186 L741.4368 186.6276 L740.5599 188.1792 L739.8237 189.767 L739.2312 191.3847 L738.7846 193.0258 L738.486 194.6836 L738.3363 196.3515 L738.3363 198.0228 L738.486 199.6907 L738.7846 201.3485 L739.2312 202.9896 L739.8237 204.6073 L740.5599 206.1951 L741.4368 207.7467 L742.451 209.2557 L743.5981 210.7161 L744.8737 212.1221 L746.2726 213.4679 L747.7892 214.7482 L749.4175 215.9578 L751.1507 217.0918 L752.9819 218.1456 L754.9039 219.115 L756.9088 219.9961 L758.9885 220.7854 L761.1348 221.4797 L763.3388 222.0761 L765.5919 222.5724 L767.8848 222.9664 L770.2084 223.2566 L772.5533 223.4418 L774.9101 223.5214 L777.2692 223.4949 L779.6213 223.3624 L781.9567 223.1246 L784.2661 222.7823 L786.5402 222.3369 L788.7699 221.7903 L790.9461 221.1446 L793.0602 220.4025 L795.1036 219.5668 L797.0679 218.6411 L798.9455 217.6289 L800.7286 216.5345 L802.4102 215.3621 L803.9834 214.1166 L805.4419 212.8029 L806.7798 211.4263 L807.9918 209.9924 L809.073 208.5069 L810.0189 206.9758 L810.826 205.4053 L811.4907 203.8018 L812.0104 202.1716 L812.3832 200.5213 L812.6075 198.8576 L812.6824 197.1871"
         id="path201" />
      <path
         d="M0 -4 L0 4 M-4 0 L4 0"
         style="fill:none;"
         transform="translate(76,231.6372)"
         id="path203" />
      <path
         transform="translate(-735.5,-108.1737)"
         style="fill:none; stroke-width:2.6667; fill-rule:evenodd; stroke-linejoin:round;"
         d="M869.0887 248.4823 L861.9078 246.3518 L853.4381 244.2754 L844.7994 242.5836 L836.0267 241.2834 L827.1552 240.3799 L818.2206 239.8768 L809.259 239.7761 L800.3064 240.0781 L791.3989 240.7818 L782.5724 241.8842 L773.8623 243.381 L765.3038 245.266 L756.9313 247.5317 L748.7784 250.169 L740.8782 253.1673 L733.2624 256.5144 L725.9615 260.197 L719.0052 264.2001 L712.4213 268.5077 L706.2362 273.1024 L700.4751 277.9657 L695.1611 283.078 L690.3154 288.4188 L685.9578 293.9665 L682.1057 299.6989 L678.7745 305.5927 L675.9778 311.6243 L673.7269 317.7694 L672.0307 324.0033 L670.8961 330.3008 L670.3276 336.6366 L670.3276 342.9852 L670.8961 349.3211 L672.0307 355.6186 L673.7269 361.8524 L675.9778 367.9976 L678.7745 374.0292 L682.1057 379.923 L685.9578 385.6554 L690.3154 391.2031 L695.1611 396.5439 L700.4751 401.6562 L706.2362 406.5195 L712.4213 411.1142 L719.0052 415.4218 L725.9615 419.4249 L733.2624 423.1075 L740.8782 426.4546 L748.7784 429.4529 L756.9313 432.0901 L765.3038 434.3559 L773.8623 436.2409 L782.5724 437.7377 L791.3989 438.8401 L800.3064 439.5437 L809.259 439.8458 L818.2206 439.7451 L827.1552 439.242 L836.0267 438.3385 L844.7994 437.0382 L853.4381 435.3465 L861.9078 433.2701 L869.0887 431.1396"
         id="path205" />
      <path
         d="M0 -4 L0 4 M-4 0 L4 0"
         style="fill:none;"
         transform="translate(-514,-17.1958)"
         id="path207" />
    </g>
    <g
       style="stroke-linecap:butt; fill:rgb(102,19,61); text-rendering:geometricPrecision; image-rendering:optimizeQuality; color-rendering:optimizeQuality; stroke-linejoin:round; stroke:rgb(102,19,61); color-interpolation:linearRGB; stroke-width:2.6667;"
       id="g215">
      <path
         d="M289.1053 90.9779 L288.9692 87.9407 L288.5614 84.9158 L287.8836 81.9152 L286.9385 78.9512 L285.7299 76.0355 L284.2626 73.1801 L282.5426 70.3963 L280.5769 67.6954 L278.3732 65.0882 L275.9406 62.5853 L273.2887 60.1967 L270.4283 57.932 L267.3708 55.8004 L264.1287 53.8105 L260.7149 51.9702 L257.1432 50.287 L253.8426 48.9372"
         style="fill:none; fill-rule:evenodd;"
         id="path211" />
      <path
         d="M189.1974 48.9372 L187.6973 49.5065 L184.052 51.1086 L180.5576 52.8712 L177.2279 54.7873 L174.0766 56.849 L171.1161 59.0483 L168.3586 61.3761 L165.8151 63.8231 L163.4957 66.3794 L161.41 69.0348 L159.5662 71.7785 L157.9718 74.5996 L156.6332 77.4865 L155.5557 80.4279 L154.7439 83.4117 L154.2008 86.4259 L153.9287 89.4586 L153.9287 92.4973 L154.2008 95.5299 L154.7439 98.5442 L155.5557 101.528 L156.6332 104.4693 L157.9718 107.3563 L159.5662 110.1773 L161.41 112.9211 L163.4957 115.5765 L165.8151 118.1328 L168.3586 120.5798 L171.1161 122.9076 L174.0766 125.1068 L177.2279 127.1686 L180.5576 129.0847 L184.052 130.8473 L187.6973 132.4494 L191.4787 133.8845 L195.381 135.1468 L199.3885 136.2313 L203.485 137.1335 L207.654 137.8499 L211.8788 138.3776 L216.1423 138.7144 L220.4274 138.859 L224.7168 138.8108 L228.9933 138.57 L233.2395 138.1375 L237.4386 137.5152 L241.5734 136.7054 L245.6274 135.7116 L249.5843 134.5376 L253.428 133.1882 L257.1432 131.6688 L260.7149 129.9856 L264.1287 128.1453 L267.3708 126.1554 L270.4283 124.0238 L273.2887 121.7592 L275.9406 119.3706 L278.3732 116.8677 L280.5769 114.2605 L282.5426 111.5595 L284.2626 108.7758 L285.7299 105.9203 L286.9385 103.0047 L287.8836 100.0406 L288.5614 97.0401 L288.9692 94.0151 L289.1053 90.9779"
         style="fill:none; fill-rule:evenodd;"
         id="path213" />
    </g>
    <g
       transform="translate(328.5,125.3695)"
       style="stroke-linecap:butt; fill:red; text-rendering:geometricPrecision; color-rendering:optimizeQuality; image-rendering:optimizeQuality; stroke:red; color-interpolation:linearRGB; stroke-width:1.3333;"
       id="g219">
      <path
         style="fill:none;"
         d="M0 -4 L0 4 M-4 0 L4 0"
         id="path217" />
    </g>
    <g
       style="stroke-linecap:butt; fill:rgb(102,19,61); text-rendering:geometricPrecision; image-rendering:optimizeQuality; color-rendering:optimizeQuality; stroke-linejoin:round; stroke:rgb(102,19,61); color-interpolation:linearRGB; stroke-width:2.6667;"
       id="g223">
      <path
         d="M381.9774 125.3695 L381.8697 122.967 L381.5471 120.5742 L381.011 118.2007 L380.2634 115.856 L379.3073 113.5497 L378.1467 111.291 L376.7862 109.0889 L375.2312 106.9524 L373.488 104.8901 L371.5638 102.9102 L369.4661 101.0208 L367.2034 99.2294 L364.7849 97.5433 L362.2203 95.9692 L359.5199 94.5135 L356.6946 93.182 L353.7558 91.9802 L350.7153 90.9128 L347.5854 89.9841 L344.3785 89.198 L341.1078 88.5574 L337.7863 88.0651 L334.4273 87.7231 L331.0446 87.5326 L327.6515 87.4944 L324.2619 87.6088 L320.8894 87.8752 L317.5475 88.2926 L314.2497 88.8593 L311.0092 89.573 L307.8393 90.4309 L304.7525 91.4294 L301.7613 92.5646 L298.8778 93.8319 L296.1136 95.2262 L293.4797 96.7418 L290.9869 98.3728 L288.6452 100.1124 L286.4639 101.9538 L284.4519 103.8894 L282.6173 105.9115 L280.9674 108.0119 L279.5089 110.1823 L278.2477 112.4138 L277.1888 114.6975 L276.3366 117.0242 L275.6943 119.3844 L275.2648 121.7688 L275.0495 124.1676 L275.0495 126.5713 L275.2648 128.9702 L275.6943 131.3546 L276.3366 133.7148 L277.1888 136.0415 L278.2477 138.3251 L279.5089 140.5567 L280.9674 142.727 L282.6173 144.8275 L284.4519 146.8496 L286.4639 148.7853 L288.6452 150.6266 L290.9869 152.3662 L293.4797 153.9971 L296.1136 155.5128 L298.8778 156.9071 L301.7613 158.1744 L304.7525 159.3096 L307.8393 160.3081 L311.0092 161.1659 L314.2497 161.8796 L317.5475 162.4463 L320.8894 162.8637 L324.2619 163.1302 L327.6515 163.2445 L331.0446 163.2064 L334.4273 163.0159 L337.7863 162.6738 L341.1078 162.1815 L344.3785 161.541 L347.5854 160.7548 L350.7153 159.8262 L353.7558 158.7588 L356.6946 157.5569 L359.5199 156.2255 L362.2203 154.7698 L364.7849 153.1957 L367.2034 151.5095 L369.4661 149.7182 L371.5638 147.8287 L373.488 145.8488 L375.2312 143.7865 L376.7862 141.65 L378.1467 139.448 L379.3073 137.1892 L380.2634 134.8829 L381.011 132.5383 L381.5471 130.1648 L381.8697 127.772 L381.9774 125.3695"
         style="fill:none; fill-rule:evenodd;"
         id="path221" />
    </g>
  </g>
</svg>
